<svg width="100" height="100" viewBox="0 0 100 100" fill="none" xmlns="http://www.w3.org/2000/svg">
  <defs>
    <radialGradient id="redGlow" cx="50%" cy="50%" r="50%">
      <stop offset="0%" stopColor="#00A8E1" stopOpacity="0.6" />
      <stop offset="100%" stopColor="#00A8E1" stopOpacity="0" />
    </radialGradient>
    <linearGradient id="tvStroke" x1="0%" y1="0%" x2="100%" y2="100%">
      <stop offset="0%" stopColor="#333" />
      <stop offset="50%" stopColor="#00A8E1" />
      <stop offset="100%" stopColor="#111" />
    </linearGradient>
    <linearGradient id="redPlayGrad" x1="0%" y1="0%" x2="100%" y2="100%">
      <stop offset="0%" stopColor="#00bffd" />
      <stop offset="100%" stopColor="#005C8A" />
    </linearGradient>
    <filter id="neonGlow" x="-20%" y="-20%" width="140%" height="140%">
      <feGaussianBlur stdDeviation="6" result="blur" />
      <feComposite in="SourceGraphic" in2="blur" operator="over" />
    </filter>
  </defs>
  <rect x="12" y="18" width="76" height="54" rx="12" fill="#000" stroke="url(#tvStroke)" strokeWidth="3.5" />
  <circle cx="50" cy="76" r="2.5" fill="#00A8E1" />
  <path d="M40 76 L60 76 L55 82 L45 82 Z" fill="#1A1A1A" stroke="#333" strokeWidth="1" />
  <path d="M 32 35 A 18 18 0 0 0 32 55" stroke="#00A8E1" strokeWidth="3" strokeLinecap="round" opacity="0.5" />
  <path d="M 24 30 A 28 28 0 0 0 24 60" stroke="#00A8E1" strokeWidth="2.5" strokeLinecap="round" opacity="0.3" />
  <path d="M 68 35 A 18 18 0 0 1 68 55" stroke="#00A8E1" strokeWidth="3" strokeLinecap="round" opacity="0.5" />
  <path d="M 76 30 A 28 28 0 0 1 76 60" stroke="#00A8E1" strokeWidth="2.5" strokeLinecap="round" opacity="0.3" strokeDasharray="" />
  <rect x="17" y="23" width="66" height="44" rx="8" fill="#060606" stroke="#1A1A1A" strokeWidth="1.5" />
  <g filter="url(#neonGlow)">
    <polygon points="42,33 65,45 42,57" fill="url(#redPlayGrad)" stroke="#FFF" strokeWidth="1.5" strokeLinejoin="round" />
  </g>
</svg>
